<svg width="0" height="0" class="hidden">
  <symbol version="1.1" id="copy" xmlns="http://www.w3.org/2000/svg" xmlns:xlink="http://www.w3.org/1999/xlink" x="0px" y="0px" xml:space="preserve" viewBox="0 0 460 460">
    <g>
      <g>
        <g>
          <path d="M425.934,0H171.662c-18.122,0-32.864,14.743-32.864,32.864v77.134h30V32.864c0-1.579,1.285-2.864,2.864-2.864h254.272
				c1.579,0,2.864,1.285,2.864,2.864v254.272c0,1.58-1.285,2.865-2.864,2.865h-74.729v30h74.729
				c18.121,0,32.864-14.743,32.864-32.865V32.864C458.797,14.743,444.055,0,425.934,0z"></path>
          <path d="M288.339,139.998H34.068c-18.122,0-32.865,14.743-32.865,32.865v254.272C1.204,445.257,15.946,460,34.068,460h254.272
				c18.122,0,32.865-14.743,32.865-32.864V172.863C321.206,154.741,306.461,139.998,288.339,139.998z M288.341,430H34.068
				c-1.58,0-2.865-1.285-2.865-2.864V172.863c0-1.58,1.285-2.865,2.865-2.865h254.272c1.58,0,2.865,1.285,2.865,2.865v254.273h0.001
				C291.206,428.715,289.92,430,288.341,430z"></path>
        </g>
      </g>
    </g>
    <g></g>
    <g></g>
    <g></g>
    <g></g>
    <g></g>
    <g></g>
    <g></g>
    <g></g>
    <g></g>
    <g></g>
    <g></g>
    <g></g>
    <g></g>
    <g></g>
    <g></g>
  </symbol>
  <symbol version="1.1" id="download" xmlns="http://www.w3.org/2000/svg" xmlns:xlink="http://www.w3.org/1999/xlink" x="0px" y="0px" xml:space="preserve" viewBox="0 0 490 490">
    <g>
      <g>
        <g>
          <path d="M245,0c-9.5,0-17.2,7.7-17.2,17.2v331.2L169,289.6c-6.7-6.7-17.6-6.7-24.3,0s-6.7,17.6,0,24.3l88.1,88.1
				c3.3,3.3,7.7,5,12.1,5c4.4,0,8.8-1.7,12.1-5l88.1-88.1c6.7-6.7,6.7-17.6,0-24.3c-6.7-6.7-17.6-6.7-24.3,0L262,348.4V17.1
				C262.1,7.6,254.5,0,245,0z"></path>
          <path d="M462.1,472.9v-99.7c0-9.5-7.7-17.2-17.2-17.2s-17.2,7.7-17.2,17.2v82.6H62.2v-82.6c0-9.5-7.7-17.2-17.1-17.2
				s-17.2,7.7-17.2,17.2v99.7c0,9.5,7.7,17.1,17.2,17.1h399.8C454.4,490,462.1,482.4,462.1,472.9z"></path>
        </g>
      </g>
      <g></g>
      <g></g>
      <g></g>
      <g></g>
      <g></g>
      <g></g>
      <g></g>
      <g></g>
      <g></g>
      <g></g>
      <g></g>
      <g></g>
      <g></g>
      <g></g>
      <g></g>
    </g>
    <g></g>
    <g></g>
    <g></g>
    <g></g>
    <g></g>
    <g></g>
    <g></g>
    <g></g>
    <g></g>
    <g></g>
    <g></g>
    <g></g>
    <g></g>
    <g></g>
    <g></g>
  </symbol>
  <symbol xmlns="http://www.w3.org/2000/svg" xml:space="preserve" viewBox="0 0 492.883 492.883" id="refresh">
    <path d="M122.941 374.241c-20.1-18.1-34.6-39.8-44.1-63.1-25.2-61.8-13.4-135.3 35.8-186l45.4 45.4c2.5 2.5 7 .7 7.6-3l24.8-162.3c.4-2.7-1.9-5-4.6-4.6l-162.4 24.8c-3.7.6-5.5 5.1-3 7.6l45.5 45.5c-75.1 76.8-87.9 192-38.6 282 14.8 27.1 35.3 51.9 61.4 72.7 44.4 35.3 99 52.2 153.2 51.1l10.2-66.7c-46.7 4-94.7-10.4-131.2-43.4zM424.941 414.341c75.1-76.8 87.9-192 38.6-282-14.8-27.1-35.3-51.9-61.4-72.7-44.4-35.3-99-52.2-153.2-51.1l-10.2 66.7c46.6-4 94.7 10.4 131.2 43.4 20.1 18.1 34.6 39.8 44.1 63.1 25.2 61.8 13.4 135.3-35.8 186l-45.4-45.4c-2.5-2.5-7-.7-7.6 3l-24.8 162.3c-.4 2.7 1.9 5 4.6 4.6l162.4-24.8c3.7-.6 5.4-5.1 3-7.6l-45.5-45.5z"></path>
  </symbol>
</svg>